<svg width="23" height="23" viewBox="0 0 23 23" fill="none" xmlns="http://www.w3.org/2000/svg">
<path d="M16.1292 7.75798C16.1889 7.83754 16.2777 7.89014 16.3762 7.90421C16.4746 7.91827 16.5746 7.89265 16.6542 7.83298C16.7338 7.7733 16.7864 7.68447 16.8004 7.58601C16.8145 7.48756 16.7889 7.38754 16.7292 7.30798C16.6329 7.17963 16.5307 7.05298 16.4254 6.93157C16.3932 6.89395 16.3539 6.86307 16.3098 6.84069C16.2657 6.81832 16.2176 6.8049 16.1682 6.80121C16.1189 6.79753 16.0693 6.80364 16.0223 6.8192C15.9753 6.83477 15.9319 6.85947 15.8945 6.8919C15.8572 6.92432 15.8266 6.96382 15.8045 7.00812C15.7825 7.05242 15.7694 7.10065 15.7661 7.15002C15.7628 7.19939 15.7693 7.24893 15.7852 7.29578C15.8011 7.34264 15.8261 7.38588 15.8588 7.42301C15.9525 7.53115 16.0435 7.64384 16.1292 7.75798Z" fill="#32343E"/>
<path d="M17.1306 13.839C17.1766 13.8567 17.2256 13.8652 17.2748 13.864C17.3241 13.8628 17.3726 13.8518 17.4176 13.8318C17.4626 13.8118 17.5033 13.7832 17.5372 13.7474C17.5711 13.7117 17.5977 13.6696 17.6153 13.6237C18.1567 12.2157 18.1974 10.6643 17.7307 9.22986C17.6999 9.1353 17.6328 9.05685 17.5441 9.01178C17.4554 8.96671 17.3525 8.95871 17.2579 8.98953C17.1634 9.02036 17.0849 9.08749 17.0398 9.17615C16.9948 9.26482 16.9868 9.36775 17.0176 9.46232C17.4309 10.733 17.3948 12.1072 16.9153 13.3544C16.8796 13.4472 16.8822 13.5504 16.9226 13.6413C16.963 13.7322 17.0378 13.8033 17.1306 13.839Z" fill="#32343E"/>
<path d="M5.64516 12.957C5.71481 12.9825 5.79045 12.9868 5.86253 12.9693C5.9346 12.9518 5.99987 12.9133 6.05007 12.8587C6.10028 12.8041 6.13317 12.7358 6.14458 12.6626C6.156 12.5893 6.14542 12.5143 6.1142 12.447C6.08297 12.3797 6.0325 12.3232 5.96916 12.2846C5.90582 12.246 5.83246 12.2271 5.75836 12.2302C5.68425 12.2333 5.61273 12.2583 5.55284 12.3021C5.49295 12.3458 5.44738 12.4063 5.42189 12.476C5.38771 12.5694 5.39203 12.6725 5.4339 12.7627C5.47577 12.8529 5.55176 12.9228 5.64516 12.957Z" fill="#32343E"/>
<path d="M4.22348 11.3291C4.29313 11.3546 4.36878 11.3588 4.44086 11.3414C4.51293 11.3239 4.57821 11.2854 4.62842 11.2308C4.67863 11.1762 4.71152 11.108 4.72295 11.0347C4.73437 10.9614 4.7238 10.8864 4.69258 10.8191C4.66136 10.7518 4.61089 10.6953 4.54755 10.6567C4.48421 10.6181 4.41085 10.5992 4.33675 10.6023C4.26264 10.6054 4.19112 10.6304 4.13123 10.6741C4.07133 10.7179 4.02576 10.7784 4.00026 10.848C3.96608 10.9414 3.9704 11.0446 4.01226 11.1348C4.05412 11.225 4.1301 11.2949 4.22348 11.3291Z" fill="#32343E"/>
<path d="M4.64231 12.5141C4.66781 12.4444 4.67208 12.3688 4.65459 12.2967C4.63709 12.2246 4.59862 12.1593 4.54403 12.1091C4.48944 12.0589 4.42119 12.026 4.34791 12.0146C4.27463 12.0032 4.1996 12.0137 4.13233 12.045C4.06505 12.0762 4.00854 12.1266 3.96994 12.19C3.93134 12.2533 3.91239 12.3267 3.91549 12.4008C3.91858 12.4749 3.94358 12.5464 3.98732 12.6063C4.03106 12.6662 4.09158 12.7118 4.16123 12.7373C4.20747 12.7542 4.2566 12.7619 4.3058 12.7598C4.35501 12.7578 4.40333 12.746 4.448 12.7253C4.49267 12.7046 4.53283 12.6753 4.56616 12.639C4.5995 12.6028 4.62538 12.5603 4.64231 12.5141Z" fill="#32343E"/>
<path d="M4.9874 13.6055C4.91775 13.58 4.84211 13.5757 4.77004 13.5932C4.69796 13.6107 4.6327 13.6492 4.5825 13.7038C4.53229 13.7584 4.4994 13.8266 4.48799 13.8999C4.47657 13.9732 4.48715 14.0482 4.51837 14.1155C4.54959 14.1828 4.60006 14.2393 4.66339 14.2779C4.72673 14.3165 4.80009 14.3354 4.87419 14.3323C4.94829 14.3292 5.01981 14.3042 5.0797 14.2605C5.13959 14.2167 5.18517 14.1562 5.21067 14.0866C5.2276 14.0403 5.23525 13.9912 5.2332 13.942C5.23114 13.8928 5.21941 13.8445 5.19868 13.7998C5.17794 13.7551 5.14862 13.715 5.11236 13.6816C5.07611 13.6483 5.03365 13.6224 4.9874 13.6055Z" fill="#32343E"/>
<path d="M6.00941 15.1778C5.93976 15.1523 5.86412 15.148 5.79205 15.1655C5.71997 15.183 5.6547 15.2215 5.60449 15.276C5.55428 15.3306 5.52139 15.3989 5.50997 15.4722C5.49855 15.5454 5.50911 15.6205 5.54033 15.6877C5.57154 15.755 5.62201 15.8115 5.68534 15.8501C5.74867 15.8887 5.82203 15.9077 5.89613 15.9046C5.97023 15.9015 6.04176 15.8765 6.10165 15.8327C6.16155 15.789 6.20713 15.7285 6.23263 15.6588C6.24956 15.6126 6.25722 15.5635 6.25516 15.5143C6.25311 15.4651 6.24138 15.4167 6.22066 15.3721C6.19993 15.3274 6.1706 15.2872 6.13436 15.2539C6.09811 15.2206 6.05565 15.1947 6.00941 15.1778Z" fill="#32343E"/>
<path d="M6.52508 13.769C6.45544 13.7435 6.37979 13.7392 6.30769 13.7566C6.2356 13.7741 6.17031 13.8126 6.12007 13.8671C6.06984 13.9217 6.03692 13.99 6.02548 14.0633C6.01404 14.1366 6.0246 14.2116 6.05581 14.2789C6.08702 14.3462 6.13749 14.4027 6.20083 14.4413C6.26417 14.4799 6.33754 14.4989 6.41165 14.4958C6.48577 14.4927 6.5573 14.4677 6.6172 14.4239C6.6771 14.3802 6.72267 14.3196 6.74816 14.25C6.78232 14.1566 6.77801 14.0535 6.73618 13.9633C6.69435 13.8731 6.61842 13.8032 6.52508 13.769Z" fill="#32343E"/>
<path d="M22.1317 14.625H18.7962C19.2946 13.5698 19.5519 12.417 19.5494 11.25C19.5494 7.05 16.2514 3.57337 12.0025 3.06431V0.375C12.0025 0.275544 11.963 0.180161 11.8927 0.109835C11.8224 0.0395088 11.727 0 11.6275 0H10.1744C10.0749 0 9.97955 0.0395088 9.90923 0.109835C9.8389 0.180161 9.79939 0.275544 9.79939 0.375V1.545L8.73064 1.68211L6.55822 1.959C4.90266 2.16696 3.39245 3.0094 2.34575 4.30884L0.0833782 7.10691C0.0338983 7.16811 0.00492943 7.24333 0.00057467 7.32191C-0.00378009 7.4005 0.0167001 7.47846 0.0591143 7.54476C0.101529 7.61105 0.163727 7.66232 0.236899 7.69131C0.310071 7.72029 0.390508 7.72552 0.466816 7.70625L3.58714 6.91814C2.67924 8.31258 2.23175 9.95675 2.30774 11.619C2.38373 13.2812 2.97936 14.8777 4.01071 16.1835C5.08492 17.5551 6.55146 18.567 8.21507 19.0844C8.51724 19.5358 8.86718 19.9533 9.25883 20.3297C10.7203 21.7359 12.668 22.5105 14.7432 22.5105C16.8184 22.5105 18.7663 21.736 20.2276 20.3297C20.9494 19.6426 21.5237 18.8156 21.9155 17.8994C22.3074 16.9831 22.5085 15.9966 22.5067 15C22.5067 14.9005 22.4672 14.8052 22.3969 14.7348C22.3265 14.6645 22.2311 14.625 22.1317 14.625ZM10.9526 18.6697C10.0448 17.802 9.49236 16.6276 9.40283 15.375H13.9243L11.4469 19.0913C11.2737 18.961 11.1086 18.8201 10.9526 18.6697ZM14.625 15.676L17.2352 19.5913C16.4311 19.9914 15.5425 20.1919 14.6445 20.1758C13.7465 20.1597 12.8656 19.9275 12.0764 19.4989L14.625 15.676ZM17.88 19.2066L15.3257 15.375H20.0838C19.9942 16.6276 19.4418 17.802 18.534 18.6697C18.3306 18.8657 18.1119 19.0452 17.88 19.2066ZM10.5494 0.75H11.2525V3H10.5494V0.75ZM9.79939 3.07031C9.30742 3.13173 8.82145 3.23418 8.34655 3.37659L8.9953 2.40431L9.79958 2.30119L9.79939 3.07031ZM7.49136 3.30703L7.22778 3.70214C7.19628 3.74934 7.16371 3.79589 7.1308 3.84234C6.69933 4.04521 6.28522 4.28312 5.89264 4.55367L5.91608 4.29844L7.49136 3.30703ZM6.65296 2.703L7.14196 2.64066L4.67952 4.19063C4.65139 4.17619 3.73011 3.969 3.73011 3.969C4.56403 3.2774 5.57803 2.8382 6.65296 2.703ZM2.92878 4.78036C2.98007 4.71695 3.0326 4.65488 3.08638 4.59413C3.09332 4.59609 3.10016 4.59825 3.10728 4.59984L3.79053 4.74984L2.08621 5.82263L2.92878 4.78036ZM3.87097 6.07294L2.5775 6.39966L5.11677 4.8015L5.08119 5.18766C4.81428 5.42315 4.56246 5.67522 4.32721 5.94234C4.20102 5.98214 3.98539 6.04406 3.87088 6.07294H3.87097ZM4.60175 15.7219C3.59551 14.4486 3.04853 12.8729 3.04939 11.25C3.04939 7.1145 6.58208 3.75 10.9244 3.75C15.2667 3.75 18.7994 7.1145 18.7994 11.25C18.8019 12.4258 18.5138 13.584 17.9607 14.6216C17.96 14.6227 17.9597 14.6239 17.9591 14.625H7.35467C7.25522 14.625 7.15984 14.6645 7.08951 14.7348C7.01918 14.8052 6.97967 14.9005 6.97967 15C6.97754 16.0596 7.20509 17.1071 7.64666 18.0703C6.45381 17.5502 5.40787 16.7435 4.60175 15.7219ZM19.7076 19.7894C18.3867 21.0606 16.6236 21.7607 14.7433 21.7607C12.8629 21.7607 11.1 21.0606 9.77891 19.7894C8.56203 18.6312 7.8329 17.0524 7.74027 15.375H8.65152C8.74136 16.8316 9.37713 18.2008 10.432 19.2094C11.58 20.3167 13.1111 20.9266 14.7433 20.9266C16.3754 20.9266 17.9066 20.3168 19.0547 19.2094C20.1095 18.2008 20.7453 16.8316 20.8351 15.375H21.7463C21.6536 17.0524 20.9245 18.6312 19.7076 19.7894Z" fill="#32343E"/>
</svg>
